<?xml version="1.0" encoding="iso-8859-1"?>
<!-- Generator: Adobe Illustrator 19.0.0, SVG Export Plug-In . SVG Version: 6.00 Build 0)  -->
<svg version="1.1" id="Capa_1" xmlns="http://www.w3.org/2000/svg" xmlns:xlink="http://www.w3.org/1999/xlink" x="0px" y="0px"
	 viewBox="0 0 480 480" style="enable-background:new 0 0 480 480;" xml:space="preserve">
<g>
	<path style="fill:#A08A8A;" d="M318.202,213.034v10.787v21.573v32.36v10.786v10.787v21.573v32.36v10.786v10.787v21.573v32.36H480
		V202.247H318.202V213.034z M438.202,234.607V223.82h20.225v10.786v20.225v12.135h-20.225V234.607z M438.202,310.112v-10.786h20.225
		v10.786v20.225v12.135h-20.225V310.112z M438.202,385.618v-10.786h20.225v10.786v20.225v12.135h-20.225V385.618z M415.281,234.607
		V223.82h20.225v10.786v20.225v12.135h-20.225V234.607z M415.281,310.112v-10.786h20.225v10.786v20.225v12.135h-20.225V310.112z
		 M415.281,385.618v-10.786h20.225v10.786v20.225v12.135h-20.225V385.618z M338.449,230.283c1.316,0.178,2.657,0.279,4.023,0.279
		c9.234,0,17.481-4.22,22.921-10.835c5.44,6.615,13.688,10.835,22.921,10.835c1.365,0,2.707-0.1,4.023-0.279v25.101
		c0,14.881-26.944,30.459-26.944,30.459s-26.944-15.578-26.944-30.459V230.283z"/>
	<rect x="318.202" y="186.067" style="fill:#826E77;" width="161.798" height="16.18"/>
	<rect x="318.202" y="428.764" style="fill:#695A69;" width="161.798" height="21.573"/>
	<polygon style="fill:#80D7F0;" points="183.371,223.82 161.798,223.82 183.371,245.393 	"/>
	<polygon style="fill:#80D7F0;" points="318.202,169.888 318.202,148.315 296.629,148.315 	"/>
	<polygon style="fill:#80D7F0;" points="210.337,396.404 210.337,374.831 188.764,374.831 	"/>
	<polygon style="fill:#80D7F0;" points="291.236,94.382 291.236,72.809 269.663,72.809 	"/>
	<polygon style="fill:#80D7F0;" points="237.303,396.404 237.303,374.831 215.73,374.831 	"/>
	<polygon style="fill:#80D7F0;" points="291.236,396.404 291.236,374.831 269.663,374.831 	"/>
	<polygon style="fill:#80D7F0;" points="318.202,396.404 318.202,374.831 296.629,374.831 	"/>
	<polygon style="fill:#80D7F0;" points="318.202,94.382 318.202,72.809 296.629,72.809 	"/>
	<polygon style="fill:#80D7F0;" points="183.371,72.809 161.798,72.809 183.371,94.382 	"/>
	<polygon style="fill:#80D7F0;" points="183.371,148.315 161.798,148.315 183.371,169.888 	"/>
	<polygon style="fill:#80D7F0;" points="237.303,94.382 237.303,72.809 215.73,72.809 	"/>
	<polygon style="fill:#80D7F0;" points="264.27,94.382 264.27,72.809 242.697,72.809 	"/>
	<polygon style="fill:#80D7F0;" points="210.337,94.382 210.337,72.809 188.764,72.809 	"/>
	<polygon style="fill:#80D7F0;" points="264.27,396.404 264.27,374.831 242.697,374.831 	"/>
	<polygon style="fill:#80D7F0;" points="237.303,245.393 237.303,223.82 215.73,223.82 	"/>
	<polygon style="fill:#80D7F0;" points="291.236,299.326 269.663,299.326 291.236,320.899 	"/>
	<polygon style="fill:#80D7F0;" points="183.371,299.326 161.798,299.326 183.371,320.899 	"/>
	<polygon style="fill:#80D7F0;" points="183.371,396.404 183.371,374.831 161.798,374.831 	"/>
	<polygon style="fill:#80D7F0;" points="237.303,299.326 215.73,299.326 237.303,320.899 	"/>
	<polygon style="fill:#80D7F0;" points="264.27,299.326 242.697,299.326 264.27,320.899 	"/>
	<polygon style="fill:#80D7F0;" points="210.337,299.326 188.764,299.326 210.337,320.899 	"/>
	<polygon style="fill:#80D7F0;" points="318.202,320.899 318.202,299.326 296.629,299.326 	"/>
	<polygon style="fill:#80D7F0;" points="291.236,169.888 291.236,148.315 269.663,148.315 	"/>
	<polygon style="fill:#80D7F0;" points="237.303,169.888 237.303,148.315 215.73,148.315 	"/>
	<polygon style="fill:#80D7F0;" points="264.27,169.888 264.27,148.315 242.697,148.315 	"/>
	<polygon style="fill:#80D7F0;" points="318.202,245.393 318.202,223.82 296.629,223.82 	"/>
	<polygon style="fill:#80D7F0;" points="291.236,245.393 291.236,223.82 269.663,223.82 	"/>
	<polygon style="fill:#80D7F0;" points="264.27,245.393 264.27,223.82 242.697,223.82 	"/>
	<polygon style="fill:#80D7F0;" points="210.337,245.393 210.337,223.82 188.764,223.82 	"/>
	<polygon style="fill:#80D7F0;" points="210.337,169.888 210.337,148.315 188.764,148.315 	"/>
	<polygon style="fill:#DFD0C6;" points="37.753,364.045 37.753,353.258 37.753,310.112 8.09,310.112 8.09,428.764 37.753,428.764 	
		"/>
	<polygon style="fill:#DFD0C6;" points="161.798,364.045 161.798,353.258 161.798,310.112 132.135,310.112 132.135,320.899 
		132.135,353.258 132.135,364.045 132.135,374.831 132.135,428.764 161.798,428.764 161.798,374.831 	"/>
	<polygon style="fill:#A08A8A;" points="296.629,428.764 296.629,374.831 296.629,364.045 291.236,364.045 291.236,374.831 
		291.236,396.404 291.236,428.764 269.663,428.764 269.663,374.831 269.663,364.045 264.27,364.045 264.27,374.831 264.27,396.404 
		264.27,428.764 242.697,428.764 242.697,374.831 242.697,364.045 237.303,364.045 237.303,374.831 237.303,396.404 
		237.303,428.764 215.73,428.764 215.73,374.831 215.73,364.045 210.337,364.045 210.337,374.831 210.337,396.404 210.337,428.764 
		188.764,428.764 188.764,374.831 188.764,364.045 183.371,364.045 183.371,374.831 183.371,396.404 183.371,428.764 
		161.798,428.764 161.798,450.337 318.202,450.337 318.202,428.764 	"/>
	<polygon style="fill:#695A69;" points="291.236,353.258 269.663,353.258 264.27,353.258 242.697,353.258 237.303,353.258 
		215.73,353.258 210.337,353.258 188.764,353.258 183.371,353.258 161.798,353.258 161.798,364.045 183.371,364.045 
		188.764,364.045 210.337,364.045 215.73,364.045 237.303,364.045 242.697,364.045 264.27,364.045 269.663,364.045 291.236,364.045 
		296.629,364.045 318.202,364.045 318.202,353.258 296.629,353.258 	"/>
	<polygon style="fill:#695A69;" points="188.764,213.034 210.337,213.034 215.73,213.034 237.303,213.034 242.697,213.034 
		264.27,213.034 269.663,213.034 291.236,213.034 296.629,213.034 318.202,213.034 318.202,202.247 296.629,202.247 
		291.236,202.247 269.663,202.247 264.27,202.247 242.697,202.247 237.303,202.247 215.73,202.247 210.337,202.247 188.764,202.247 
		183.371,202.247 161.798,202.247 161.798,213.034 183.371,213.034 	"/>
	<polygon style="fill:#695A69;" points="188.764,137.528 210.337,137.528 215.73,137.528 237.303,137.528 242.697,137.528 
		264.27,137.528 269.663,137.528 291.236,137.528 296.629,137.528 318.202,137.528 318.202,126.742 296.629,126.742 
		291.236,126.742 269.663,126.742 264.27,126.742 242.697,126.742 237.303,126.742 215.73,126.742 210.337,126.742 188.764,126.742 
		183.371,126.742 161.798,126.742 161.798,137.528 183.371,137.528 	"/>
	<polygon style="fill:#695A69;" points="188.764,62.022 210.337,62.022 215.73,62.022 237.303,62.022 242.697,62.022 264.27,62.022 
		269.663,62.022 291.236,62.022 296.629,62.022 318.202,62.022 318.202,51.236 161.798,51.236 161.798,62.022 183.371,62.022 	"/>
	<rect x="161.798" y="29.663" style="fill:#A08A8A;" width="156.405" height="21.573"/>
	<rect x="132.135" y="428.764" style="fill:#C8B2A8;" width="29.663" height="21.573"/>
	<rect x="8.09" y="428.764" style="fill:#C8B2A8;" width="29.663" height="21.573"/>
	<polygon style="fill:#826E77;" points="161.798,277.753 161.798,272.36 0,272.36 0,277.753 8.09,277.753 	"/>
	<path style="fill:#826E77;" d="M93.404,288.539c0.405-2.211,1.301-4.038,2.607-5.393h-5.985v5.393H93.404z"/>
	<rect y="293.933" style="fill:#826E77;" width="30.695" height="5.393"/>
	<path style="fill:#826E77;" d="M45.858,288.539h2.401c0.409-2.213,1.315-4.039,2.643-5.393h-6.561
		c0.989,1.182,1.558,2.751,1.558,4.577C45.9,288.002,45.885,288.273,45.858,288.539z"/>
	<rect x="74.134" y="283.146" style="fill:#826E77;" width="12.62" height="5.393"/>
	<path style="fill:#826E77;" d="M42.556,287.738c0-2.658-1.621-4.177-4.469-4.177h-4.119v4.979h8.524
		C42.527,288.283,42.556,288.02,42.556,287.738z"/>
	<path style="fill:#826E77;" d="M67.537,293.933c-0.369,2.193-1.217,4.02-2.476,5.393h5.801v-5.393H67.537z"/>
	<polygon style="fill:#826E77;" points="117.982,293.933 117.982,299.043 128.09,299.043 128.09,299.326 161.798,299.326 
		161.798,293.933 	"/>
	<path style="fill:#826E77;" d="M64.127,293.933H51.615c0.707,3.208,2.792,5.196,5.771,5.393h0.983
		C61.347,299.128,63.423,297.141,64.127,293.933z"/>
	<path style="fill:#826E77;" d="M67.495,288.539h3.368v-5.393h-6.016C66.176,284.5,67.084,286.326,67.495,288.539z"/>
	<path style="fill:#826E77;" d="M48.217,293.933h-5.992c-0.984,0.479-2.124,0.743-3.379,0.743h-4.879v4.65h16.721
		C49.43,297.952,48.585,296.125,48.217,293.933z"/>
	<rect y="283.146" style="fill:#826E77;" width="30.695" height="5.393"/>
	<path style="fill:#826E77;" d="M96.757,293.933c0.668,3.123,2.591,5.1,5.339,5.393h1.315c2.62-0.193,4.481-1.642,5.092-4.007h3.257
		c-0.293,1.588-0.922,2.934-1.835,4.007h4.785v-5.393H96.757z"/>
	<polygon style="fill:#826E77;" points="48.539,310.112 48.539,310.112 53.932,310.112 53.932,310.112 53.932,310.112 
		53.932,353.258 97.078,353.259 97.078,353.258 53.932,310.112 115.955,310.112 115.955,310.112 121.348,310.112 121.348,310.112 
		132.135,310.112 161.798,310.112 161.798,304.719 0,304.719 0,310.112 8.09,310.112 37.753,310.112 	"/>
	<polygon style="fill:#826E77;" points="117.982,283.619 117.982,288.539 161.798,288.539 161.798,283.146 128.09,283.146 
		128.09,283.619 	"/>
	<path style="fill:#826E77;" d="M108.503,287.782c-0.584-2.702-2.833-4.47-5.696-4.47c-3.034,0-5.217,1.979-5.994,5.227h17.898
		v-5.393h-5.13c1.162,1.22,1.933,2.797,2.165,4.636H108.503z"/>
	<path style="fill:#826E77;" d="M90.026,293.933v5.393h5.762c-1.231-1.373-2.061-3.2-2.424-5.393H90.026z"/>
	<polygon style="fill:#826E77;" points="74.134,293.933 74.134,299.043 83.95,299.043 83.95,299.326 86.754,299.326 86.754,293.933 
			"/>
	<path style="fill:#826E77;" d="M57.878,283.327c-3.173,0-5.413,1.952-6.208,5.212h12.402
		C63.282,285.279,61.051,283.327,57.878,283.327z"/>
	<path style="fill:#695A69;" d="M30.695,283.146V280.8h8.253c2.27,0,4.16,0.871,5.394,2.346h6.561
		c1.697-1.731,4.072-2.697,6.975-2.697c2.896,0,5.271,0.966,6.969,2.697h6.016V280.8h3.272v2.346h12.62V280.8h3.272v2.346h5.985
		c1.665-1.729,3.985-2.697,6.795-2.697c2.779,0,5.157,0.999,6.774,2.697h5.13V280.8h13.379v2.346h33.708v5.393h21.573h5.393h21.573
		h5.393h21.573h5.393h21.573h5.393h21.573h5.393h21.573v-10.786h-21.573h-5.393h-21.573h-5.393h-21.573h-5.393H215.73h-5.393
		h-21.573h-5.393h-21.573H8.09H0v5.393H30.695z"/>
	<rect y="288.539" style="fill:#695A69;" width="30.695" height="5.393"/>
	<path style="fill:#695A69;" d="M90.026,293.933h3.337c-0.135-0.819-0.211-1.684-0.211-2.601c0-0.989,0.092-1.917,0.252-2.792
		h-3.378V293.933z"/>
	<path style="fill:#695A69;" d="M67.751,291.346c0,0.912-0.077,1.773-0.214,2.587h3.325v-5.393h-3.368
		C67.658,289.418,67.751,290.351,67.751,291.346z"/>
	<path style="fill:#695A69;" d="M96.496,291.331c0,0.936,0.09,1.805,0.26,2.601h17.954v-5.393H96.812
		C96.609,289.389,96.496,290.32,96.496,291.331z"/>
	<rect x="74.134" y="288.539" style="fill:#695A69;" width="12.62" height="5.393"/>
	<polygon style="fill:#695A69;" points="117.982,289.783 127.549,289.783 127.549,292.5 117.982,292.5 117.982,293.933 
		161.798,293.933 161.798,288.539 117.982,288.539 	"/>
	<path style="fill:#695A69;" d="M42.224,293.933h5.992c-0.137-0.814-0.213-1.675-0.213-2.587c0-0.995,0.093-1.927,0.256-2.806
		h-2.401C45.615,291.016,44.262,292.94,42.224,293.933z"/>
	<path style="fill:#695A69;" d="M64.392,291.346c0-1.019-0.114-1.955-0.32-2.806H51.67c-0.207,0.851-0.322,1.787-0.322,2.806
		c0,0.931,0.092,1.795,0.266,2.587h12.512C64.301,293.141,64.392,292.276,64.392,291.346z"/>
	<path style="fill:#695A69;" d="M38.086,291.93c2.533,0,4.099-1.232,4.405-3.391h-8.524v3.391H38.086z"/>
	<path style="fill:#695A69;" d="M161.798,304.719v-5.393H128.09v2.551h-13.379v-2.551h-4.785c-1.588,1.867-4.039,2.902-7.119,2.902
		c-2.943,0-5.346-1.035-7.019-2.902h-5.762v2.551h-3.272v-2.551H83.95v2.551H70.862v-2.551h-5.801
		c-1.71,1.866-4.168,2.902-7.184,2.902c-3.024,0-5.482-1.036-7.19-2.902H33.967v2.551h-3.272v-2.551H0v5.393H161.798z"/>
	<path style="fill:#695A69;" d="M103.411,299.326h-1.315c0.236,0.025,0.477,0.039,0.725,0.039
		C103.025,299.365,103.215,299.34,103.411,299.326z"/>
	<path style="fill:#695A69;" d="M57.878,299.35c0.168,0,0.329-0.013,0.491-0.024h-0.983C57.548,299.337,57.71,299.35,57.878,299.35z
		"/>
	<path style="fill:#DFD0C6;" d="M38.846,294.676c1.255,0,2.395-0.265,3.379-0.743c2.038-0.992,3.391-2.917,3.634-5.393
		c0.026-0.266,0.042-0.537,0.042-0.816c0-1.826-0.569-3.395-1.558-4.577c-1.234-1.475-3.124-2.346-5.394-2.346h-8.253v2.346v5.393
		v5.393v5.393v2.551h3.272v-2.551v-4.65H38.846z M33.967,283.561h4.119c2.848,0,4.469,1.519,4.469,4.177
		c0,0.282-0.028,0.545-0.064,0.801c-0.306,2.158-1.872,3.391-4.405,3.391h-4.119v-3.391V283.561z"/>
	<path style="fill:#DFD0C6;" d="M67.537,293.933c0.137-0.814,0.214-1.675,0.214-2.587c0-0.995-0.094-1.927-0.257-2.806
		c-0.41-2.213-1.319-4.039-2.648-5.393c-1.699-1.731-4.073-2.697-6.969-2.697c-2.903,0-5.278,0.966-6.975,2.697
		c-1.328,1.354-2.234,3.18-2.643,5.393c-0.162,0.879-0.256,1.811-0.256,2.806c0,0.912,0.076,1.773,0.213,2.587
		c0.368,2.193,1.214,4.02,2.471,5.393c1.708,1.866,4.166,2.902,7.19,2.902c3.016,0,5.475-1.036,7.184-2.902
		C66.321,297.952,67.168,296.125,67.537,293.933z M57.878,299.35c-0.168,0-0.329-0.013-0.491-0.024
		c-2.979-0.198-5.064-2.185-5.771-5.393c-0.175-0.792-0.266-1.656-0.266-2.587c0-1.019,0.114-1.955,0.322-2.806
		c0.794-3.26,3.034-5.212,6.208-5.212c3.173,0,5.404,1.952,6.194,5.212c0.206,0.851,0.32,1.787,0.32,2.806
		c0,0.931-0.091,1.795-0.265,2.587c-0.704,3.208-2.78,5.196-5.758,5.393C58.206,299.337,58.045,299.35,57.878,299.35z"/>
	<polygon style="fill:#DFD0C6;" points="74.134,299.043 74.134,293.933 74.134,288.539 74.134,283.146 74.134,280.8 70.862,280.8 
		70.862,283.146 70.862,288.539 70.862,293.933 70.862,299.326 70.862,301.877 83.95,301.877 83.95,299.326 83.95,299.043 	"/>
	<polygon style="fill:#DFD0C6;" points="90.026,288.539 90.026,283.146 90.026,280.8 86.754,280.8 86.754,283.146 86.754,288.539 
		86.754,293.933 86.754,299.326 86.754,301.877 90.026,301.877 90.026,299.326 90.026,293.933 	"/>
	<path style="fill:#DFD0C6;" d="M108.503,295.319c-0.612,2.365-2.473,3.815-5.092,4.007c-0.196,0.014-0.385,0.039-0.59,0.039
		c-0.248,0-0.489-0.014-0.725-0.039c-2.749-0.293-4.671-2.271-5.339-5.393c-0.17-0.796-0.26-1.666-0.26-2.601
		c0-1.011,0.112-1.943,0.316-2.792c0.777-3.248,2.961-5.227,5.994-5.227c2.863,0,5.112,1.767,5.696,4.47h3.243
		c-0.232-1.838-1.004-3.416-2.165-4.636c-1.617-1.697-3.995-2.697-6.774-2.697c-2.81,0-5.13,0.968-6.795,2.697
		c-1.306,1.355-2.202,3.182-2.607,5.393c-0.16,0.875-0.252,1.803-0.252,2.792c0,0.918,0.076,1.783,0.211,2.601
		c0.363,2.194,1.194,4.02,2.424,5.393c1.673,1.866,4.076,2.902,7.019,2.902c3.08,0,5.531-1.034,7.119-2.902
		c0.912-1.073,1.542-2.419,1.835-4.007H108.503z"/>
	<polygon style="fill:#DFD0C6;" points="117.982,299.043 117.982,293.933 117.982,292.5 127.549,292.5 127.549,289.783 
		117.982,289.783 117.982,288.539 117.982,283.619 128.09,283.619 128.09,283.146 128.09,280.8 114.711,280.8 114.711,283.146 
		114.711,288.539 114.711,293.933 114.711,299.326 114.711,301.877 128.09,301.877 128.09,299.326 128.09,299.043 	"/>
	<polygon style="fill:#695A69;" points="53.932,392.36 53.932,364.045 53.932,450.337 48.539,450.337 48.539,450.337 
		53.932,450.337 53.932,392.36 	"/>
	<polygon style="fill:#695A69;" points="82.247,392.36 82.247,364.045 53.932,364.045 82.247,392.36 	"/>
	<polygon style="fill:#695A69;" points="87.641,392.36 87.641,386.697 87.641,450.337 87.641,450.337 87.641,392.36 	"/>
	<polygon style="fill:#695A69;" points="37.753,392.36 37.753,364.045 37.753,428.764 37.753,450.337 37.753,450.337 37.753,392.36 
			"/>
	<polygon style="fill:#695A69;" points="121.349,392.36 121.348,364.045 121.348,450.337 115.955,450.337 115.955,450.337 
		121.349,450.337 121.349,392.36 	"/>
	<polygon style="fill:#695A69;" points="121.349,338.427 121.348,310.112 121.348,353.258 121.349,353.258 121.349,338.427 	"/>
	<polygon style="fill:#695A69;" points="48.539,364.045 37.753,364.045 48.539,374.831 	"/>
	<rect x="53.932" y="310.112" style="fill:#695A69;" width="0" height="43.146"/>
	<polygon style="fill:#695A69;" points="37.753,338.427 37.753,310.112 37.753,353.258 37.753,353.258 37.753,338.427 	"/>
	<polygon style="fill:#695A69;" points="132.135,310.112 121.348,310.112 132.135,320.899 	"/>
	<polygon style="fill:#695A69;" points="97.078,353.258 115.955,353.258 115.955,310.112 53.932,310.112 	"/>
	<polygon style="fill:#695A69;" points="48.539,320.898 48.539,310.112 37.753,310.112 	"/>
	<polygon style="fill:#695A69;" points="121.348,364.045 132.135,374.831 132.135,364.045 	"/>
	<polygon style="fill:#695A69;" points="87.641,364.045 87.641,364.045 115.955,392.36 115.955,392.36 115.955,364.045 	"/>
	<polygon style="fill:#A08A8A;" points="87.64,364.045 87.641,364.045 87.641,364.045 115.955,364.045 115.955,392.36 
		115.955,392.36 115.955,450.337 121.348,450.337 121.348,364.045 132.135,364.045 132.135,353.258 121.349,353.258 
		121.348,353.258 121.348,310.112 121.348,310.112 115.955,310.112 115.955,310.112 115.955,353.258 97.078,353.258 97.078,353.259 
		53.932,353.258 53.932,353.258 53.932,310.112 53.932,310.112 48.539,310.112 48.539,310.112 48.539,320.898 48.539,320.899 
		48.539,353.258 37.753,353.258 37.753,353.258 37.753,364.045 48.539,364.045 48.539,374.831 48.539,374.831 48.539,450.337 
		53.932,450.337 53.932,364.045 82.247,364.045 82.247,392.36 82.247,450.337 87.641,450.337 87.641,386.697 	"/>
	<polygon style="fill:#826E77;" points="82.247,392.36 53.932,364.045 53.932,392.36 53.932,392.36 53.932,450.337 82.247,450.337 
		82.247,392.36 	"/>
	<polygon style="fill:#826E77;" points="115.955,392.36 115.955,392.36 115.955,392.36 87.641,364.045 87.64,364.045 
		87.641,386.697 87.641,392.36 87.641,392.36 87.641,450.337 115.955,450.337 115.955,450.337 	"/>
	<polygon style="fill:#826E77;" points="48.539,374.831 48.539,374.831 37.753,364.045 37.753,392.36 37.753,392.36 37.753,450.337 
		48.539,450.337 48.539,450.337 	"/>
	<polygon style="fill:#826E77;" points="132.135,374.831 121.348,364.045 121.349,392.36 121.349,392.36 121.349,450.337 
		132.135,450.337 132.135,428.764 	"/>
	<polygon style="fill:#826E77;" points="121.348,310.112 121.349,338.427 121.349,338.427 121.349,353.258 132.135,353.258 
		132.135,320.899 	"/>
	<polygon style="fill:#826E77;" points="37.753,338.427 37.753,338.427 37.753,353.258 48.539,353.258 48.539,320.899 
		48.539,320.898 37.753,310.112 	"/>
	<polygon style="fill:#A08A8A;" points="188.764,62.022 183.371,62.022 183.371,72.809 183.371,94.382 183.371,126.742 
		188.764,126.742 188.764,72.809 	"/>
	<polygon style="fill:#A08A8A;" points="215.73,62.022 210.337,62.022 210.337,72.809 210.337,94.382 210.337,126.742 
		215.73,126.742 215.73,72.809 	"/>
	<polygon style="fill:#A08A8A;" points="242.697,62.022 237.303,62.022 237.303,72.809 237.303,94.382 237.303,126.742 
		242.697,126.742 242.697,72.809 	"/>
	<polygon style="fill:#A08A8A;" points="269.663,62.022 264.27,62.022 264.27,72.809 264.27,94.382 264.27,126.742 269.663,126.742 
		269.663,72.809 	"/>
	<polygon style="fill:#A08A8A;" points="296.629,62.022 291.236,62.022 291.236,72.809 291.236,94.382 291.236,126.742 
		296.629,126.742 296.629,72.809 	"/>
	<polygon style="fill:#A08A8A;" points="188.764,137.528 183.371,137.528 183.371,148.315 183.371,169.888 183.371,202.247 
		188.764,202.247 188.764,148.315 	"/>
	<polygon style="fill:#A08A8A;" points="215.73,137.528 210.337,137.528 210.337,148.315 210.337,169.888 210.337,202.247 
		215.73,202.247 215.73,148.315 	"/>
	<polygon style="fill:#A08A8A;" points="242.697,137.528 237.303,137.528 237.303,148.315 237.303,169.888 237.303,202.247 
		242.697,202.247 242.697,148.315 	"/>
	<polygon style="fill:#A08A8A;" points="269.663,137.528 264.27,137.528 264.27,148.315 264.27,169.888 264.27,202.247 
		269.663,202.247 269.663,148.315 	"/>
	<polygon style="fill:#A08A8A;" points="296.629,137.528 291.236,137.528 291.236,148.315 291.236,169.888 291.236,202.247 
		296.629,202.247 296.629,148.315 	"/>
	<polygon style="fill:#A08A8A;" points="188.764,213.034 183.371,213.034 183.371,223.82 183.371,245.393 183.371,277.753 
		188.764,277.753 188.764,223.82 	"/>
	<polygon style="fill:#A08A8A;" points="215.73,213.034 210.337,213.034 210.337,223.82 210.337,245.393 210.337,277.753 
		215.73,277.753 215.73,223.82 	"/>
	<polygon style="fill:#A08A8A;" points="242.697,213.034 237.303,213.034 237.303,223.82 237.303,245.393 237.303,277.753 
		242.697,277.753 242.697,223.82 	"/>
	<polygon style="fill:#A08A8A;" points="269.663,213.034 264.27,213.034 264.27,223.82 264.27,245.393 264.27,277.753 
		269.663,277.753 269.663,223.82 	"/>
	<polygon style="fill:#A08A8A;" points="296.629,213.034 291.236,213.034 291.236,223.82 291.236,245.393 291.236,277.753 
		296.629,277.753 296.629,223.82 	"/>
	<polygon style="fill:#A08A8A;" points="183.371,320.899 183.371,353.258 188.764,353.258 188.764,299.326 188.764,288.539 
		183.371,288.539 183.371,299.326 	"/>
	<polygon style="fill:#A08A8A;" points="210.337,320.899 210.337,353.258 215.73,353.258 215.73,299.326 215.73,288.539 
		210.337,288.539 210.337,299.326 	"/>
	<polygon style="fill:#A08A8A;" points="237.303,320.899 237.303,353.258 242.697,353.258 242.697,299.326 242.697,288.539 
		237.303,288.539 237.303,299.326 	"/>
	<polygon style="fill:#A08A8A;" points="264.27,320.899 264.27,353.258 269.663,353.258 269.663,299.326 269.663,288.539 
		264.27,288.539 264.27,299.326 	"/>
	<polygon style="fill:#A08A8A;" points="291.236,320.899 291.236,353.258 296.629,353.258 296.629,299.326 296.629,288.539 
		291.236,288.539 291.236,299.326 	"/>
	<rect x="161.798" y="62.022" style="fill:#6EB1E2;" width="21.573" height="10.786"/>
	<rect x="188.764" y="62.022" style="fill:#6EB1E2;" width="21.573" height="10.786"/>
	<rect x="215.73" y="62.022" style="fill:#6EB1E2;" width="21.573" height="10.786"/>
	<rect x="242.697" y="62.022" style="fill:#6EB1E2;" width="21.573" height="10.786"/>
	<rect x="269.663" y="62.022" style="fill:#6EB1E2;" width="21.573" height="10.786"/>
	<rect x="296.629" y="62.022" style="fill:#6EB1E2;" width="21.573" height="10.786"/>
	<rect x="161.798" y="137.528" style="fill:#6EB1E2;" width="21.573" height="10.787"/>
	<rect x="188.764" y="137.528" style="fill:#6EB1E2;" width="21.573" height="10.787"/>
	<rect x="215.73" y="137.528" style="fill:#6EB1E2;" width="21.573" height="10.787"/>
	<rect x="242.697" y="137.528" style="fill:#6EB1E2;" width="21.573" height="10.787"/>
	<rect x="269.663" y="137.528" style="fill:#6EB1E2;" width="21.573" height="10.787"/>
	<rect x="296.629" y="137.528" style="fill:#6EB1E2;" width="21.573" height="10.787"/>
	<rect x="161.798" y="213.034" style="fill:#6EB1E2;" width="21.573" height="10.787"/>
	<rect x="188.764" y="213.034" style="fill:#6EB1E2;" width="21.573" height="10.787"/>
	<rect x="215.73" y="213.034" style="fill:#6EB1E2;" width="21.573" height="10.787"/>
	<rect x="242.697" y="213.034" style="fill:#6EB1E2;" width="21.573" height="10.787"/>
	<rect x="269.663" y="213.034" style="fill:#6EB1E2;" width="21.573" height="10.787"/>
	<rect x="296.629" y="213.034" style="fill:#6EB1E2;" width="21.573" height="10.787"/>
	<polygon style="fill:#6EB1E2;" points="183.371,288.539 161.798,288.539 161.798,293.933 161.798,299.326 183.371,299.326 	"/>
	<rect x="188.764" y="288.539" style="fill:#6EB1E2;" width="21.573" height="10.787"/>
	<rect x="215.73" y="288.539" style="fill:#6EB1E2;" width="21.573" height="10.787"/>
	<rect x="242.697" y="288.539" style="fill:#6EB1E2;" width="21.573" height="10.787"/>
	<rect x="269.663" y="288.539" style="fill:#6EB1E2;" width="21.573" height="10.787"/>
	<rect x="296.629" y="288.539" style="fill:#6EB1E2;" width="21.573" height="10.787"/>
	<rect x="161.798" y="364.045" style="fill:#6EB1E2;" width="21.573" height="10.787"/>
	<rect x="188.764" y="364.045" style="fill:#6EB1E2;" width="21.573" height="10.787"/>
	<rect x="215.73" y="364.045" style="fill:#6EB1E2;" width="21.573" height="10.787"/>
	<rect x="242.697" y="364.045" style="fill:#6EB1E2;" width="21.573" height="10.787"/>
	<rect x="269.663" y="364.045" style="fill:#6EB1E2;" width="21.573" height="10.787"/>
	<rect x="296.629" y="364.045" style="fill:#6EB1E2;" width="21.573" height="10.787"/>
	<polygon style="fill:#95FFFF;" points="183.371,94.382 161.798,72.809 161.798,126.742 183.371,126.742 	"/>
	<polygon style="fill:#95FFFF;" points="188.764,72.809 188.764,126.742 210.337,126.742 210.337,94.382 	"/>
	<polygon style="fill:#95FFFF;" points="215.73,72.809 215.73,126.742 237.303,126.742 237.303,94.382 	"/>
	<polygon style="fill:#95FFFF;" points="242.697,72.809 242.697,126.742 264.27,126.742 264.27,94.382 	"/>
	<polygon style="fill:#95FFFF;" points="269.663,72.809 269.663,126.742 291.236,126.742 291.236,94.382 	"/>
	<polygon style="fill:#95FFFF;" points="296.629,126.742 318.202,126.742 318.202,94.382 296.629,72.809 	"/>
	<polygon style="fill:#95FFFF;" points="183.371,169.888 161.798,148.315 161.798,202.247 183.371,202.247 	"/>
	<polygon style="fill:#95FFFF;" points="188.764,148.315 188.764,202.247 210.337,202.247 210.337,169.888 	"/>
	<polygon style="fill:#95FFFF;" points="215.73,148.315 215.73,202.247 237.303,202.247 237.303,169.888 	"/>
	<polygon style="fill:#95FFFF;" points="242.697,148.315 242.697,202.247 264.27,202.247 264.27,169.888 	"/>
	<polygon style="fill:#95FFFF;" points="269.663,148.315 269.663,202.247 291.236,202.247 291.236,169.888 	"/>
	<polygon style="fill:#95FFFF;" points="296.629,202.247 318.202,202.247 318.202,186.067 318.202,169.888 296.629,148.315 	"/>
	<polygon style="fill:#95FFFF;" points="183.371,277.753 183.371,245.393 161.798,223.82 161.798,272.36 161.798,277.753 	"/>
	<polygon style="fill:#95FFFF;" points="188.764,223.82 188.764,277.753 210.337,277.753 210.337,245.393 	"/>
	<polygon style="fill:#95FFFF;" points="215.73,223.82 215.73,277.753 237.303,277.753 237.303,245.393 	"/>
	<polygon style="fill:#95FFFF;" points="242.697,223.82 242.697,277.753 264.27,277.753 264.27,245.393 	"/>
	<polygon style="fill:#95FFFF;" points="269.663,223.82 269.663,277.753 291.236,277.753 291.236,245.393 	"/>
	<polygon style="fill:#95FFFF;" points="296.629,277.753 318.202,277.753 318.202,245.393 296.629,223.82 	"/>
	<polygon style="fill:#95FFFF;" points="183.371,353.258 183.371,320.899 161.798,299.326 161.798,304.719 161.798,310.112 
		161.798,353.258 	"/>
	<polygon style="fill:#95FFFF;" points="188.764,299.326 188.764,353.258 210.337,353.258 210.337,320.899 	"/>
	<polygon style="fill:#95FFFF;" points="215.73,299.326 215.73,353.258 237.303,353.258 237.303,320.899 	"/>
	<polygon style="fill:#95FFFF;" points="242.697,299.326 242.697,353.258 264.27,353.258 264.27,320.899 	"/>
	<polygon style="fill:#95FFFF;" points="269.663,299.326 269.663,353.258 291.236,353.258 291.236,320.899 	"/>
	<polygon style="fill:#95FFFF;" points="296.629,353.258 318.202,353.258 318.202,320.899 296.629,299.326 	"/>
	<polygon style="fill:#95FFFF;" points="161.798,428.764 183.371,428.764 183.371,396.404 161.798,374.831 	"/>
	<polygon style="fill:#95FFFF;" points="188.764,428.764 210.337,428.764 210.337,396.404 188.764,374.831 	"/>
	<polygon style="fill:#95FFFF;" points="215.73,428.764 237.303,428.764 237.303,396.404 215.73,374.831 	"/>
	<polygon style="fill:#95FFFF;" points="242.697,428.764 264.27,428.764 264.27,396.404 242.697,374.831 	"/>
	<polygon style="fill:#95FFFF;" points="269.663,428.764 291.236,428.764 291.236,396.404 269.663,374.831 	"/>
	<polygon style="fill:#95FFFF;" points="296.629,428.764 318.202,428.764 318.202,396.404 296.629,374.831 	"/>
	<polygon style="fill:#95FFFF;" points="458.427,254.831 438.202,234.607 438.202,266.966 458.427,266.966 	"/>
	<polygon style="fill:#95FFFF;" points="435.506,254.831 415.281,234.607 415.281,266.966 435.506,266.966 	"/>
	<rect x="415.281" y="223.82" style="fill:#6EB1E2;" width="20.225" height="10.786"/>
	<rect x="438.202" y="223.82" style="fill:#6EB1E2;" width="20.225" height="10.786"/>
	<polygon style="fill:#80D7F0;" points="435.506,234.607 415.281,234.607 435.506,254.831 	"/>
	<polygon style="fill:#80D7F0;" points="458.427,234.607 438.202,234.607 458.427,254.831 	"/>
	<polygon style="fill:#95FFFF;" points="458.427,330.337 438.202,310.112 438.202,342.472 458.427,342.472 	"/>
	<polygon style="fill:#95FFFF;" points="435.506,330.337 415.281,310.112 415.281,342.472 435.506,342.472 	"/>
	<rect x="415.281" y="299.326" style="fill:#6EB1E2;" width="20.225" height="10.786"/>
	<rect x="438.202" y="299.326" style="fill:#6EB1E2;" width="20.225" height="10.786"/>
	<polygon style="fill:#80D7F0;" points="435.506,310.112 415.281,310.112 435.506,330.337 	"/>
	<polygon style="fill:#80D7F0;" points="458.427,310.112 438.202,310.112 458.427,330.337 	"/>
	<polygon style="fill:#95FFFF;" points="458.427,405.843 438.202,385.618 438.202,417.978 458.427,417.978 	"/>
	<polygon style="fill:#95FFFF;" points="435.506,405.843 415.281,385.618 415.281,417.978 435.506,417.978 	"/>
	<rect x="415.281" y="374.831" style="fill:#6EB1E2;" width="20.225" height="10.786"/>
	<rect x="438.202" y="374.831" style="fill:#6EB1E2;" width="20.225" height="10.786"/>
	<polygon style="fill:#80D7F0;" points="435.506,385.618 415.281,385.618 435.506,405.843 	"/>
	<polygon style="fill:#80D7F0;" points="458.427,385.618 438.202,385.618 458.427,405.843 	"/>
	<path style="fill:#6EB1E2;" d="M365.393,285.843c0,0,26.944-15.578,26.944-30.459v-25.101c-1.316,0.178-2.658,0.279-4.023,0.279
		c-9.234,0-17.481-4.22-22.921-10.835c-5.44,6.615-13.688,10.835-22.921,10.835c-1.365,0-2.707-0.1-4.023-0.279v25.101
		C338.449,270.265,365.393,285.843,365.393,285.843z M343.842,235.929c8.008-0.309,15.569-3.322,21.551-8.501
		c5.981,5.18,13.543,8.192,21.551,8.501v19.455c0,4.37-4.073,10.268-11.467,16.611c-3.78,3.242-7.614,5.891-10.084,7.496
		c-2.47-1.605-6.304-4.254-10.084-7.496c-7.395-6.342-11.467-12.241-11.467-16.611V235.929z"/>
	<path style="fill:#80D7F0;" d="M355.309,271.995c3.78,3.241,7.614,5.891,10.084,7.496c2.47-1.605,6.304-4.254,10.084-7.496
		c7.395-6.342,11.467-12.241,11.467-16.611v-19.455c-8.008-0.309-15.57-3.322-21.551-8.501c-5.981,5.18-13.543,8.192-21.551,8.501
		v19.455C343.842,259.754,347.915,265.653,355.309,271.995z M365.393,242.697c4.096,0,7.658,2.283,9.485,5.645
		c0.332,0.611,0.607,1.258,0.817,1.934c0.315,1.013,0.485,2.091,0.485,3.208s-0.17,2.194-0.485,3.208
		c-0.21,0.676-0.485,1.323-0.817,1.934c-1.827,3.362-5.389,5.645-9.485,5.645c-5.957,0-10.786-4.829-10.786-10.786
		S359.436,242.697,365.393,242.697z"/>
	<path style="fill:#F2D057;" d="M375.695,256.691c-0.21,0.676-0.485,1.323-0.817,1.934
		C375.21,258.013,375.485,257.366,375.695,256.691z"/>
	<path style="fill:#F2D057;" d="M374.878,248.342c0.332,0.611,0.607,1.258,0.817,1.934
		C375.485,249.6,375.21,248.953,374.878,248.342z"/>
	<path style="fill:#F2D057;" d="M365.393,264.27v-21.573c-5.957,0-10.786,4.829-10.786,10.786S359.436,264.27,365.393,264.27z"/>
	<path style="fill:#E9A868;" d="M374.878,258.625c0.332-0.611,0.607-1.258,0.817-1.934c0.315-1.013,0.485-2.091,0.485-3.208
		s-0.17-2.194-0.485-3.208c-0.21-0.676-0.485-1.323-0.817-1.934c-1.827-3.362-5.389-5.645-9.485-5.645v21.573
		C369.489,264.27,373.051,261.987,374.878,258.625z"/>
</g>
<g>
</g>
<g>
</g>
<g>
</g>
<g>
</g>
<g>
</g>
<g>
</g>
<g>
</g>
<g>
</g>
<g>
</g>
<g>
</g>
<g>
</g>
<g>
</g>
<g>
</g>
<g>
</g>
<g>
</g>
</svg>
