<svg xmlns="http://www.w3.org/2000/svg" viewBox="0 0 512 512"><path d="M512 256c0 61.856-21.936 118.584-58.452 162.84-17.884 21.664-73.876 68.008-133.328 75.844-96.688 12.752-209.908-24.672-238.184-50.876C31.58 397.056 0 330.212 0 256 0 114.62 114.616 0 256 0s256 114.62 256 256z" fill="#2d4452"/><path d="M490.256 82.476c0-28.992 0-50.748-43.484-72.484-43.492-21.748-195.688-7.252-260.916 36.24-43.484-7.252-57.984 0-72.48 21.752 21.744 0 21.744 14.496 7.248 36.24-12.312 18.46-82.104 84.044-102.86 245.464a255.524 255.524 0 0 0 36.48 63.796c11.812-35.752 39.088-80.828 66.384-113.584 30.816-27.288 129.112-99.44 217.104-144.752 74.916-38.584 159.72-48.288 170.068-56.204-3.572-6.072-9.416-12.412-17.544-16.468z" fill="#2179a6"/><path d="M130.156 50.324c19.892-1.808 36.436.752 44.32 5.544 2.948-2.876 10.14-8.868 11.384-9.636-28.036-4.676-44-3.292-55.704 4.092zM512 111.464c0-7.252-7.252-21.744-21.744-28.988 0-28.992 0-50.748-43.484-72.484-15.252-7.616-43.86-10.768-77.384-9.8 23.704.736 43.368 3.936 55.088 9.8C467.96 31.74 467.96 53.484 467.96 82.476c14.496 7.248 21.744 21.748 21.744 28.988H512z" fill="#1e7099"/><path d="M507.688 98.876c-42.028 16.516-83.38-30.9-104.408-30.9-21.752 0-50.736 50.732-79.72 57.976-21.752 28.992-115.972 101.468-152.208 108.716 0-14.496 28.992-28.988 50.732-72.476-28.992 14.496-86.976 50.74-115.964 115.964-5.556 22.244 3.94 27.1 14.496 21.744 86.972-43.488 202.944-108.712 224.676-123.208 21.744 28.992 28.984 50.74 21.744 86.968 65.236-21.744 57.98-94.212 36.244-115.956 28.992-14.496 79.728-21.748 86.976-21.748 7.248 0 21.744-7.252 21.744-14.492 0-3.204-1.496-7.816-4.312-12.588z" fill="#e6e6e6"/><circle cx="415.44" cy="46.492" r="7.248" fill="#242424"/><path d="M378.6 456.712c-1.564 8.804-2.524 17.352-3.048 25.632 25.5-13.5 48.472-31.108 67.948-52.056 1.924.148 5.732.764 9.18 2.992 2.188-3.328 4.424-6.008 6.504-7.86-18.988-16.176-51.192-21.812-80.584 31.292z" fill="#2995cc"/><path d="M405.516 463.796l-10.796-26.992-57.812 62.108a254.931 254.931 0 0 0 68.608-35.116z" fill="#f5f5f5"/><path d="M405.856 392.704c-30.048 9.28-60.556 64.352-92.76 112.844 24.476-5.58 47.616-14.624 68.872-26.664 23.216-28.172 43.192-50.5 61.536-48.58.004 0 .008-.008.008-.008 2.312.172 7.316.984 11.192 4.5 5.896 4.236 11.636 11.524 17.296 22.616 27.016-53.332-17.788-79.648-66.144-64.708z" fill="#91d2f2"/><path d="M87.472 434.384l-7.328 7.564c26.28 24.872 57.808 44.208 92.772 56.2h49.196L163.8 352.376l-76.328 82.008z" fill="#f5f5f5"/><path d="M274.264 485.584c-92.92-56.416-63.528-128.944-46-144.592-18.996-16.18-51.204-21.812-80.592 31.288-10.9 61.632 4.26 112.36 36.028 125.86 3.32 1.416 5.468.352 8.54 2.608 9.212 2.344 17.172 3.992 26.752 5.304 11.832-2.42 30.552-5.764 55.272-20.468z" fill="#2995cc"/><path d="M174.936 308.264c-32.924 10.172-66.404 75.32-102.064 126.548a257.473 257.473 0 0 0 23.668 21.392c64.144-60.992 106.252-158.288 144.532-83.22 27.02-53.336-17.776-79.656-66.136-64.72z" fill="#91d2f2"/><path d="M329.192 394.42c-18.996-16.18-51.204-21.812-80.592 31.284-4.772 26.984-4.512 51.836-.076 72.416 1.044 4.844 37.164 10.892 52.728 7.92.712-.132 4.216 1.152 4.916 1.016a258.728 258.728 0 0 0 24.56-6.172c-36.292-46.992-15.284-94.196-1.536-106.464z" fill="#2995cc"/><path d="M264.72 405.804l-76.332 82.008-11.348 11.72A255.473 255.473 0 0 0 256 512c16.864 0 33.332-1.672 49.28-4.788l-40.56-101.408z" fill="#f5f5f5"/><path d="M275.856 361.704c-34.716 10.728-70.04 82.564-107.892 134.756 10.744 3.928 21.844 7.108 33.204 9.584 62.076-61.104 103.284-153.252 140.828-79.628 27.02-53.336-17.784-79.652-66.14-64.712z" fill="#91d2f2"/><path d="M54.244 413.476c11.812-35.752 39.088-80.828 66.384-113.584-6.576 3.344-12.724 2.704-15.096-3.608-2.412 1.224-4.816 2.42-7.188 3.608-24.536 29.444-44.452 63.976-54.78 98.984 3.368 5.016 6.968 9.852 10.68 14.6z" fill="#1e7099"/></svg>