<svg xmlns="http://www.w3.org/2000/svg" viewBox="0 0 480 480"><path d="M160 127.273L80 90.909 0 127.273v254.545h160V127.273zm-87.273 160V360H21.818v-80h50.91v7.273zm0-116.364v72.727H21.818v-80h50.91v7.273zm65.455 116.364V360h-50.91v-80h50.91v7.273zm0-116.364v72.727h-50.91v-80h50.91v7.273z" fill="#e17277"/><path fill="#bf515a" d="M0 381.818h160v29.091H0z"/><path fill="#95ffff" d="M29.091 236.364h36.364v-7.273l-36.364-36.364z"/><path fill="#80d7f0" d="M65.455 229.091v-36.364H29.091z"/><path fill="#6eb1e2" d="M29.091 170.909h36.364v14.545H29.091z"/><path d="M29.091 163.636h-7.273v80h50.91v-80H29.091zm36.364 65.455v7.273H29.091v-43.636h36.364v36.363zm0-43.636H29.091V170.91h36.364v14.545z" fill="#695a69"/><path fill="#95ffff" d="M94.545 236.364h36.364v-7.273l-36.364-36.364z"/><path fill="#80d7f0" d="M130.909 229.091v-36.364H94.545z"/><path fill="#6eb1e2" d="M94.545 170.909h36.364v14.545H94.545z"/><path d="M94.545 163.636h-7.273v80h50.91v-80H94.545zm36.364 65.455v7.273H94.545v-43.636h36.364v36.363zm0-43.636H94.545V170.91h36.364v14.545z" fill="#695a69"/><path d="M320 381.818V127.273l-80-36.364-80 36.364v254.545h160zm-72.727-145.454v-72.727h50.91v80h-50.91v-7.273zm0 116.363V280h50.91v80h-50.91v-7.273zm-65.455-116.363v-72.727h50.91v80h-50.91v-7.273zm0 116.363V280h50.91v80h-50.91v-7.273z" fill="#f2d057"/><path fill="#e9a868" d="M160 381.818h160v29.091H160z"/><path d="M320 127.273v254.545h160V127.273l-80-36.364-80 36.364zm72.727 160V360h-50.91v-80h50.91v7.273zm0-116.364v72.727h-50.91v-80h50.91v7.273zm14.546 65.455v-72.727h50.91v80h-50.91v-7.273zm0 116.363V280h50.91v80h-50.91v-7.273z" fill="#7cdaaf"/><path fill="#65b1a8" d="M320 381.818h160v29.091H320z"/><path fill="#95ffff" d="M29.091 352.727h36.364v-7.272l-36.364-36.364z"/><path fill="#80d7f0" d="M65.455 345.455v-36.364H29.091z"/><path fill="#6eb1e2" d="M29.091 287.273h36.364v14.545H29.091z"/><path d="M29.091 280h-7.273v80h50.91v-80H29.091zm36.364 65.455v7.273H29.091v-43.636h36.364v36.363zm0-43.637H29.091v-14.545h36.364v14.545z" fill="#695a69"/><path fill="#95ffff" d="M94.545 352.727h36.364v-7.272l-36.364-36.364z"/><path fill="#80d7f0" d="M130.909 345.455v-36.364H94.545z"/><path fill="#6eb1e2" d="M94.545 287.273h36.364v14.545H94.545z"/><path d="M94.545 280h-7.273v80h50.91v-80H94.545zm36.364 65.455v7.273H94.545v-43.636h36.364v36.363zm0-43.637H94.545v-14.545h36.364v14.545z" fill="#695a69"/><path fill="#95ffff" d="M225.455 229.091l-36.364-36.364v43.637h36.364z"/><path fill="#80d7f0" d="M225.455 192.727h-36.364l36.364 36.364z"/><path fill="#6eb1e2" d="M189.091 170.909h36.364v14.545h-36.364z"/><path d="M225.455 243.636h7.273v-80h-50.91v80h43.637zm-36.364-72.727h36.364v14.545h-36.364v-14.545zm0 21.818h36.364v43.637h-36.364v-43.637z" fill="#695a69"/><path fill="#95ffff" d="M290.909 229.091l-36.364-36.364v43.637h36.364z"/><path fill="#80d7f0" d="M290.909 192.727h-36.364l36.364 36.364z"/><path fill="#6eb1e2" d="M254.545 170.909h36.364v14.545h-36.364z"/><path d="M290.909 243.636h7.273v-80h-50.91v80h43.637zm-36.364-72.727h36.364v14.545h-36.364v-14.545zm0 21.818h36.364v43.637h-36.364v-43.637z" fill="#695a69"/><path fill="#95ffff" d="M225.455 345.455l-36.364-36.364v43.636h36.364z"/><path fill="#80d7f0" d="M225.455 309.091h-36.364l36.364 36.364z"/><path fill="#6eb1e2" d="M189.091 287.273h36.364v14.545h-36.364z"/><path d="M225.455 360h7.273v-80h-50.91v80h43.637zm-36.364-72.727h36.364v14.545h-36.364v-14.545zm0 21.818h36.364v43.637h-36.364v-43.637z" fill="#695a69"/><path fill="#95ffff" d="M290.909 345.455l-36.364-36.364v43.636h36.364z"/><path fill="#80d7f0" d="M290.909 309.091h-36.364l36.364 36.364z"/><path fill="#6eb1e2" d="M254.545 287.273h36.364v14.545h-36.364z"/><path d="M290.909 360h7.273v-80h-50.91v80h43.637zm-36.364-72.727h36.364v14.545h-36.364v-14.545zm0 21.818h36.364v43.637h-36.364v-43.637z" fill="#695a69"/><path fill="#95ffff" d="M349.091 236.364h36.364v-7.273l-36.364-36.364z"/><path fill="#80d7f0" d="M385.455 229.091v-36.364h-36.364z"/><path fill="#6eb1e2" d="M349.091 170.909h36.364v14.545h-36.364z"/><path d="M349.091 163.636h-7.273v80h50.91v-80h-43.637zm36.364 65.455v7.273h-36.364v-43.636h36.364v36.363zm0-43.636h-36.364V170.91h36.364v14.545z" fill="#695a69"/><path fill="#95ffff" d="M450.909 229.091l-36.364-36.364v43.637h36.364z"/><path fill="#80d7f0" d="M450.909 192.727h-36.364l36.364 36.364z"/><path fill="#6eb1e2" d="M414.545 170.909h36.364v14.545h-36.364z"/><path d="M450.909 243.636h7.273v-80h-50.91v80h43.637zm-36.364-72.727h36.364v14.545h-36.364v-14.545zm0 21.818h36.364v43.637h-36.364v-43.637z" fill="#695a69"/><path fill="#95ffff" d="M349.091 352.727h36.364v-7.272l-36.364-36.364z"/><path fill="#80d7f0" d="M385.455 345.455v-36.364h-36.364z"/><path fill="#6eb1e2" d="M349.091 287.273h36.364v14.545h-36.364z"/><path d="M349.091 280h-7.273v80h50.91v-80h-43.637zm36.364 65.455v7.273h-36.364v-43.636h36.364v36.363zm0-43.637h-36.364v-14.545h36.364v14.545z" fill="#695a69"/><path fill="#95ffff" d="M450.909 345.455l-36.364-36.364v43.636h36.364z"/><path fill="#80d7f0" d="M450.909 309.091h-36.364l36.364 36.364z"/><path fill="#6eb1e2" d="M414.545 287.273h36.364v14.545h-36.364z"/><path d="M450.909 360h7.273v-80h-50.91v80h43.637zm-36.364-72.727h36.364v14.545h-36.364v-14.545zm0 21.818h36.364v43.637h-36.364v-43.637zm43.637-213.554V69.091h-21.818V85.62L400 69.091l-80 36.364-21.818-9.918V69.091h-21.818V85.62L240 69.091l-80 36.364-21.818-9.918V69.091h-21.818V85.62L80 69.091 0 105.455v21.818l80-36.364 80 36.364 80-36.364 80 36.364 80-36.364 80 36.364v-21.818z" fill="#695a69"/></svg>